<svg width="140" height="106" viewBox="0 0 140 106" fill="none" xmlns="http://www.w3.org/2000/svg">
<g clip-path="url(#clip0_4003_1695)">
<path d="M56.6286 34.2605C55.2267 32.2784 53.882 30.3625 52.5212 28.4581C52.1234 27.9015 51.7188 27.2577 50.8956 27.4099C50.1008 27.5569 49.8539 28.2689 49.6636 28.9236C48.8531 31.7118 47.985 34.4783 46.8622 37.161C44.0599 43.8569 38.9759 47.2442 31.6805 47.2596C28.6478 47.266 25.6149 47.2825 22.5823 47.2648C20.9851 47.2555 19.5325 47.6408 18.3203 48.7033C17.2586 49.6338 16.07 50.045 14.6473 49.9249C13.6435 49.8401 12.6267 49.9188 11.616 49.9034C8.69579 49.8591 6.2308 47.6703 5.78168 44.7351C5.30408 41.6138 6.97534 38.7432 9.82579 37.8327C10.8888 37.4931 12.0011 37.7908 13.0786 37.6648C16.6406 37.2483 19.7474 38.4066 22.696 40.2644C23.9572 41.0591 25.2875 41.769 26.714 42.2372C28.5883 42.8525 29.6044 42.4511 30.5029 40.6897C31.6796 38.3827 32.456 35.9168 33.1959 33.4449C35.4622 25.8739 36.9592 18.1357 38.2837 10.3554C38.9469 6.4599 40.6545 3.13399 44.3417 1.22102C49.3526 -1.37875 55.8712 0.557592 59.252 5.57011C61.5082 8.91519 63.7705 12.2561 66.042 15.5909C67.4448 17.6503 68.3915 17.7809 70.2108 16.0745C74.0095 12.5114 77.6921 8.82072 81.5766 5.35432C85.0983 2.2116 89.308 0.636949 94.0976 0.631588C104.327 0.62014 114.556 0.536706 124.785 0.507068C130.011 0.491927 133.888 4.23096 133.756 9.09924C133.65 13.0283 130.325 16.5996 126.389 16.7644C117.944 17.118 109.491 16.9621 101.042 16.9397C98.1907 16.9322 97.0738 17.9742 96.4763 20.8577C96.1893 22.2425 96.7988 23.5829 97.4315 24.7911C99.1991 28.1663 102.001 30.0829 105.861 30.1768C109.498 30.2652 113.14 30.1615 116.778 30.2181C120.586 30.2773 123.826 32.7129 124.781 36.1249C126.108 40.8668 123.043 45.6708 118.138 46.528C117.221 46.6882 116.299 46.7604 115.364 46.759C109.298 46.75 103.233 46.7768 97.1675 46.7573C94.38 46.7484 92.4586 48.0483 91.357 50.5286C89.4427 54.839 87.9056 59.3116 85.7827 63.533C82.5374 69.9861 77.2327 73.2176 70.0481 73.3803C66.451 73.4617 62.8503 73.426 59.2519 73.3858C57.7658 73.3691 56.4427 73.7213 55.3361 74.7088C54.3417 75.5961 53.2242 75.9518 51.8914 75.8507C50.8059 75.7685 49.7008 75.7485 48.6188 75.8517C45.505 76.1486 42.8148 73.1824 42.6666 69.9375C42.5196 66.7194 44.9925 63.916 48.1872 63.6839C51.7472 63.4252 55.2056 63.6858 58.3434 65.6855C59.5656 66.4645 60.8975 67.0752 62.1936 67.7349C64.8764 69.1005 65.9569 68.82 67.4402 66.191C69.7958 62.0155 71.1698 57.4603 72.478 52.8815C73.2629 50.134 73.7521 47.3031 74.8313 44.6378C75.4461 43.1192 76.3173 41.8041 77.5176 40.6649C79.3904 38.8874 81.2826 37.1145 82.9921 35.1857C85.1052 32.8015 83.8422 28.3293 80.8514 27.1799C79.6488 26.7178 78.6039 26.8851 77.6273 27.8087C73.5792 31.6375 69.4893 35.4222 65.433 39.2425C63.4309 41.1281 61.2759 40.958 59.6999 38.7192C58.6778 37.2672 57.6854 35.7945 56.6286 34.2605ZM115.323 38.3913C115.517 39.6319 116.112 40.202 117.166 40.1058C118.126 40.0182 118.72 39.495 118.811 38.5176C118.892 37.6411 118.173 36.8152 117.22 36.7385C116.178 36.6545 115.605 37.2619 115.323 38.3913ZM126.642 7.36706C125.388 6.85433 124.475 7.07948 124.092 8.03439C123.773 8.83138 123.917 9.56453 124.654 10.0531C125.39 10.5403 126.226 10.6188 126.866 9.95004C127.619 9.16297 127.517 8.28439 126.642 7.36706Z" fill="#4A90E2"/>
<path d="M133.871 90.6849C134.391 90.0045 136.587 89.6761 137.09 90.1068C137.413 90.3831 137.257 90.698 137.163 90.996C135.716 95.5652 134.244 100.127 132.826 104.705C132.499 105.76 131.713 105.57 130.971 105.586C130.205 105.603 129.451 105.699 129.159 104.65C128.501 102.284 127.763 99.939 127.041 97.5906C126.914 97.1801 126.904 96.7074 126.382 96.2685C125.752 98.3677 125.146 100.384 124.543 102.401C124.417 102.826 124.312 103.257 124.185 103.681C123.587 105.67 123.455 105.742 121.381 105.584C120.776 105.538 120.421 105.318 120.242 104.72C118.838 100.052 117.416 95.389 116.005 90.7228C115.96 90.5757 115.977 90.4101 115.961 90.1877C116.892 89.7446 117.853 89.87 118.788 89.988C119.314 90.0543 119.363 90.5971 119.483 91.0209C120.324 94 121.167 96.9788 122.1 100.28C122.917 97.517 123.65 95.0453 124.379 92.5725C124.481 92.2253 124.561 91.8716 124.661 91.5236C125.094 90.0158 126.024 89.5209 127.556 89.9111C128.226 90.0817 128.263 90.6416 128.4 91.1126C129.153 93.7014 129.871 96.3003 130.605 98.8948C130.713 99.2787 130.84 99.6574 131.072 100.403C132.057 96.9806 132.949 93.8811 133.871 90.6849Z" fill="#4A90E2"/>
<path d="M1.32083 89.9302C2.72329 89.6738 3.57117 90.1118 4.22489 91.3465C5.22246 93.2306 6.42573 95.0066 7.55097 96.8229C7.77994 97.1925 7.93784 97.6293 8.39678 97.8445C8.96031 97.6705 9.11575 97.1309 9.37314 96.6982C10.5065 94.7928 11.6203 92.8758 12.7469 90.9663C13.2625 90.0924 15.1243 89.529 16.0284 89.9472C16.4799 90.1561 16.5342 90.5507 16.5347 90.957C16.5401 95.4699 16.5284 99.9827 16.5413 104.495C16.545 105.782 15.6436 105.575 14.8496 105.59C14.044 105.605 13.279 105.631 13.2911 104.466C13.317 101.98 13.299 99.4947 13.299 96.7098C12.0393 98.2114 11.3474 99.706 10.4662 101.073C9.20754 103.027 7.61259 103.038 6.38483 101.072C5.51258 99.6747 4.63363 98.282 3.47895 96.9187C3.47895 97.5288 3.47955 98.1389 3.47884 98.7489C3.47663 100.643 3.43582 102.538 3.48646 104.43C3.51447 105.476 2.95331 105.656 2.11417 105.588C1.35965 105.526 0.395717 105.843 0.384007 104.526C0.344618 100.095 0.278669 95.6644 0.235215 91.2337C0.228714 90.5707 0.256495 89.8828 1.32083 89.9302Z" fill="#4A90E2"/>
<path d="M41.5152 105.479C38.7491 105.737 38.7486 105.737 38.7469 103.074C38.7444 99.1629 38.7692 95.2518 38.7228 91.3415C38.7107 90.3212 38.9878 89.8729 40.084 89.9205C42.301 90.0169 44.5203 89.6633 46.7412 89.9111C49.3326 90.2003 51.1657 91.7596 51.5123 93.9829C51.968 96.9052 50.9089 98.8552 48.252 99.9901C48.1097 100.051 47.9751 100.13 47.8436 100.197C48.3625 101.821 49.481 102.775 51.0777 102.799C52.1373 102.815 52.4704 103.243 52.487 104.262C52.5043 105.325 52.0331 105.714 51.058 105.742C49.3639 105.791 47.8653 105.348 46.6709 104.084C45.8626 103.228 45.1827 102.279 44.5885 101.268C44.3087 100.792 43.9851 100.467 43.3661 100.432C42.0196 100.357 41.8805 100.503 41.8109 101.865C41.7501 103.054 42.1037 104.269 41.5152 105.479ZM46.8392 92.9682C46.2813 92.9096 45.7223 92.7913 45.1658 92.802C41.1765 92.8789 41.8943 92.0443 41.8238 96.2663C41.8232 96.3064 41.8278 96.3468 41.8249 96.3867C41.7813 96.9945 42.0804 97.2405 42.6746 97.2914C43.8391 97.3909 44.9967 97.4879 46.1677 97.3485C47.2757 97.2166 48.0986 96.7793 48.3054 95.593C48.5079 94.4318 48.1177 93.5486 46.8392 92.9682Z" fill="#4A90E2"/>
<path d="M112.763 103.274C108.512 107.095 102.576 106.503 99.8067 102.051C98.1086 99.3207 98.2752 95.6781 100.223 92.9501C102.023 90.4293 105.423 89.1318 108.466 89.8045C111.797 90.5408 114.261 93.069 114.852 96.3014C115.338 98.9543 114.567 101.22 112.763 103.274ZM106.27 92.8042C104.129 93.0937 102.736 94.267 102.137 96.337C101.129 99.8186 104.004 103.296 107.363 102.676C109.96 102.196 111.889 99.9124 111.718 97.5206C111.516 94.699 109.421 92.81 106.27 92.8042Z" fill="#4A90E2"/>
<path d="M21.7103 100.082C23.0351 97.0457 24.3737 94.1144 25.5782 91.1293C26.0562 89.9446 26.883 89.9449 27.8941 89.9177C28.8669 89.8915 29.4383 90.1854 29.837 91.1215C31.6822 95.4538 33.5957 99.7572 35.477 104.074C36.0162 105.312 35.8377 105.478 34.51 105.611C33.1139 105.75 32.2513 105.281 31.9255 103.909C31.6356 102.688 30.896 102.241 29.6322 102.339C28.268 102.444 26.8869 102.413 25.5178 102.346C24.4694 102.295 23.9269 102.697 23.552 103.685C22.7915 105.689 22.5548 105.756 20.5219 105.599C19.7081 105.537 19.5409 105.186 19.831 104.499C20.4415 103.053 21.057 101.609 21.7103 100.082ZM25.9878 98.0969C25.8815 98.4194 25.5911 98.7208 25.9193 99.1684C27.123 99.1777 28.3736 99.3054 29.751 99.0632C29.1339 97.3704 28.532 95.8738 27.6271 94.2368C27.0445 95.6035 26.5482 96.7675 25.9878 98.0969Z" fill="#4A90E2"/>
<path d="M58.7557 103.339C58.744 105.487 58.6944 105.562 57.3434 105.588C55.6197 105.621 55.5141 105.513 55.513 103.748C55.5106 99.6366 55.552 95.5241 55.4777 91.4137C55.4537 90.0851 56.0635 89.92 57.1669 89.9035C58.2928 89.8867 58.8045 90.1981 58.754 91.3965C58.6847 93.0409 58.7367 94.6905 58.7367 96.7269C60.5248 94.7492 62.0816 93.037 63.6274 91.3151C64.933 89.8607 66.5225 89.487 68.4691 90.2017C68.6001 90.638 68.2623 90.8617 68.0274 91.1189C66.4765 92.8167 64.9226 94.5117 63.3616 96.2003C62.2621 97.3896 62.2751 97.3678 63.3886 98.6134C65.0555 100.478 66.6956 102.366 68.3406 104.25C68.5974 104.544 68.9343 104.809 68.8929 105.263C67.3184 106.023 65.4246 105.677 64.3237 104.433C62.9922 102.928 61.6681 101.417 60.3585 99.9285C58.8453 100.662 58.609 101.856 58.7557 103.339Z" fill="#4A90E2"/>
<path d="M81.9209 96.7449C83.3787 96.9435 82.9059 97.9641 82.9104 98.7343C82.9148 99.5051 82.4164 99.7482 81.7039 99.7427C80.0892 99.7304 78.4709 99.8094 76.8604 99.7277C75.6727 99.6674 75.1511 100.001 75.2758 101.272C75.3814 102.349 75.2613 103.446 75.3017 104.532C75.3438 105.664 74.5818 105.601 73.837 105.586C73.0857 105.571 72.2229 105.747 72.2259 104.532C72.2372 99.9816 72.2333 95.4313 72.2234 90.881C72.2219 90.2173 72.5145 89.9478 73.1722 89.9436C76.3607 89.9235 79.5491 89.8834 82.7375 89.8508C83.6093 89.8419 83.8405 90.364 83.7805 91.1159C83.7226 91.8417 83.9669 92.7391 82.7585 92.7876C80.7422 92.8685 78.7258 93.0154 76.7109 92.7969C75.702 92.6875 75.2454 92.9947 75.2784 94.1138C75.3704 97.2315 74.9719 96.68 77.9335 96.7337C79.225 96.7571 80.5173 96.7395 81.9209 96.7449Z" fill="#4A90E2"/>
<path d="M91.9585 105.591C90.545 105.59 89.2527 105.573 87.9608 105.592C87.1595 105.603 86.7812 105.285 86.7841 104.448C86.7994 99.9776 86.8133 95.5067 86.7731 91.0365C86.761 89.699 87.664 89.9881 88.4282 89.9323C89.2974 89.8688 89.895 89.9927 89.8784 91.1214C89.8287 94.5038 89.8948 97.8879 89.8432 101.27C89.8279 102.278 90.159 102.616 91.1597 102.579C92.8127 102.517 94.4708 102.598 96.1254 102.561C97.4044 102.533 97.3613 103.348 97.3951 104.252C97.4317 105.233 97.0956 105.648 96.0767 105.603C94.7469 105.544 93.4123 105.59 91.9585 105.591Z" fill="#4A90E2"/>
<path d="M137.248 104.528C137.278 103.531 137.818 103.079 138.643 103.108C139.344 103.132 139.856 103.574 139.918 104.33C139.981 105.098 139.521 105.562 138.831 105.712C137.976 105.899 137.451 105.465 137.248 104.528Z" fill="#4A90E2"/>
</g>
<defs>
<clipPath id="clip0_4003_1695">
<rect width="140" height="106" fill="white"/>
</clipPath>
</defs>
</svg>
